<mxfile host="app.diagrams.net" agent="Mozilla/5.0 (Windows NT 10.0; Win64; x64; rv:131.0) Gecko/20100101 Firefox/131.0" version="24.7.17">
  <diagram name="Страница — 2" id="HFjxC8v0h-KdInVyAiu1">
    <mxGraphModel dx="1624" dy="403" grid="1" gridSize="10" guides="1" tooltips="1" connect="1" arrows="1" fold="1" page="1" pageScale="1" pageWidth="827" pageHeight="1169" math="0" shadow="0">
      <root>
        <mxCell id="0" />
        <mxCell id="1" parent="0" />
        <mxCell id="Xl0pEHAAfheojtCyOTRl-1" value=":Client" style="shape=umlActor;verticalLabelPosition=bottom;verticalAlign=top;html=1;" parent="1" vertex="1">
          <mxGeometry x="-820" y="370" width="30" height="60" as="geometry" />
        </mxCell>
        <mxCell id="Xl0pEHAAfheojtCyOTRl-2" value="manager :Manager" style="html=1;whiteSpace=wrap;" parent="1" vertex="1">
          <mxGeometry x="-469" y="525" width="112" height="50" as="geometry" />
        </mxCell>
        <mxCell id="Xl0pEHAAfheojtCyOTRl-3" value="order :Order" style="html=1;whiteSpace=wrap;" parent="1" vertex="1">
          <mxGeometry x="-195" y="525" width="110" height="50" as="geometry" />
        </mxCell>
        <mxCell id="Xl0pEHAAfheojtCyOTRl-4" value="courier :Courier" style="html=1;whiteSpace=wrap;" parent="1" vertex="1">
          <mxGeometry x="-780" y="525" width="97" height="50" as="geometry" />
        </mxCell>
        <mxCell id="Xl0pEHAAfheojtCyOTRl-5" value="storage :Storage" style="html=1;whiteSpace=wrap;" parent="1" vertex="1">
          <mxGeometry x="-195" y="375" width="110" height="50" as="geometry" />
        </mxCell>
        <mxCell id="Xl0pEHAAfheojtCyOTRl-6" value="store :OnlineStore" style="html=1;whiteSpace=wrap;" parent="1" vertex="1">
          <mxGeometry x="-580" y="375" width="180" height="50" as="geometry" />
        </mxCell>
        <mxCell id="Xl0pEHAAfheojtCyOTRl-7" value="&lt;span style=&quot;color: rgb(0, 0, 0); font-family: Helvetica; font-size: 11px; font-style: normal; font-variant-ligatures: normal; font-variant-caps: normal; font-weight: 400; letter-spacing: normal; orphans: 2; text-align: center; text-indent: 0px; text-transform: none; widows: 2; word-spacing: 0px; -webkit-text-stroke-width: 0px; white-space: nowrap; background-color: rgb(255, 255, 255); text-decoration-thickness: initial; text-decoration-style: initial; text-decoration-color: initial; display: inline !important; float: none;&quot;&gt;1: inputDeliveryDetailes(detailes, products)&lt;/span&gt;" style="text;whiteSpace=wrap;html=1;" parent="1" vertex="1">
          <mxGeometry x="-790" y="350" width="180" height="30" as="geometry" />
        </mxCell>
        <mxCell id="Xl0pEHAAfheojtCyOTRl-8" value="" style="endArrow=none;html=1;rounded=0;entryX=0;entryY=0.5;entryDx=0;entryDy=0;" parent="1" source="Xl0pEHAAfheojtCyOTRl-1" target="Xl0pEHAAfheojtCyOTRl-6" edge="1">
          <mxGeometry width="50" height="50" relative="1" as="geometry">
            <mxPoint x="-775" y="420" as="sourcePoint" />
            <mxPoint x="-625" y="320" as="targetPoint" />
          </mxGeometry>
        </mxCell>
        <mxCell id="Xl0pEHAAfheojtCyOTRl-9" value="" style="endArrow=open;endFill=1;endSize=12;html=1;rounded=0;" parent="1" edge="1">
          <mxGeometry width="160" relative="1" as="geometry">
            <mxPoint x="-710" y="384.58" as="sourcePoint" />
            <mxPoint x="-680" y="384.58" as="targetPoint" />
          </mxGeometry>
        </mxCell>
        <mxCell id="Xl0pEHAAfheojtCyOTRl-10" value="&lt;span style=&quot;color: rgb(0, 0, 0); font-family: Helvetica; font-size: 11px; font-style: normal; font-variant-ligatures: normal; font-variant-caps: normal; font-weight: 400; letter-spacing: normal; orphans: 2; text-align: center; text-indent: 0px; text-transform: none; widows: 2; word-spacing: 0px; -webkit-text-stroke-width: 0px; white-space: nowrap; background-color: rgb(255, 255, 255); text-decoration-thickness: initial; text-decoration-style: initial; text-decoration-color: initial; display: inline !important; float: none;&quot;&gt;2: checkInStock(product)&lt;/span&gt;" style="text;whiteSpace=wrap;html=1;" parent="1" vertex="1">
          <mxGeometry x="-391" y="370" width="160" height="30" as="geometry" />
        </mxCell>
        <mxCell id="Xl0pEHAAfheojtCyOTRl-11" value="" style="endArrow=none;html=1;rounded=0;entryX=0;entryY=0.5;entryDx=0;entryDy=0;exitX=1;exitY=0.5;exitDx=0;exitDy=0;" parent="1" source="Xl0pEHAAfheojtCyOTRl-6" target="Xl0pEHAAfheojtCyOTRl-5" edge="1">
          <mxGeometry width="50" height="50" relative="1" as="geometry">
            <mxPoint x="-430" y="490" as="sourcePoint" />
            <mxPoint x="-220" y="490" as="targetPoint" />
          </mxGeometry>
        </mxCell>
        <mxCell id="Xl0pEHAAfheojtCyOTRl-12" value="" style="endArrow=open;endFill=1;endSize=12;html=1;rounded=0;" parent="1" edge="1">
          <mxGeometry width="160" relative="1" as="geometry">
            <mxPoint x="-250" y="384.65999999999997" as="sourcePoint" />
            <mxPoint x="-220" y="384.65999999999997" as="targetPoint" />
          </mxGeometry>
        </mxCell>
        <mxCell id="Xl0pEHAAfheojtCyOTRl-13" value="&lt;span style=&quot;color: rgb(0, 0, 0); font-family: Helvetica; font-size: 11px; font-style: normal; font-variant-ligatures: normal; font-variant-caps: normal; font-weight: 400; letter-spacing: normal; orphans: 2; text-align: center; text-indent: 0px; text-transform: none; widows: 2; word-spacing: 0px; -webkit-text-stroke-width: 0px; white-space: nowrap; background-color: rgb(255, 255, 255); text-decoration-thickness: initial; text-decoration-style: initial; text-decoration-color: initial; display: inline !important; float: none;&quot;&gt;* [inStock=true] 3: inStock=amountCheck(amount)&lt;/span&gt;" style="text;whiteSpace=wrap;html=1;" parent="1" vertex="1">
          <mxGeometry x="-250" y="310" width="180" height="30" as="geometry" />
        </mxCell>
        <mxCell id="Xl0pEHAAfheojtCyOTRl-14" value="" style="endArrow=none;html=1;rounded=0;exitX=0.091;exitY=0.001;exitDx=0;exitDy=0;entryX=0.908;entryY=-0.002;entryDx=0;entryDy=0;exitPerimeter=0;entryPerimeter=0;" parent="1" source="Xl0pEHAAfheojtCyOTRl-5" target="Xl0pEHAAfheojtCyOTRl-5" edge="1">
          <mxGeometry width="50" height="50" relative="1" as="geometry">
            <mxPoint x="-158.75" y="365" as="sourcePoint" />
            <mxPoint x="-104" y="350" as="targetPoint" />
            <Array as="points">
              <mxPoint x="-185" y="350" />
              <mxPoint x="-95" y="350" />
            </Array>
          </mxGeometry>
        </mxCell>
        <mxCell id="Xl0pEHAAfheojtCyOTRl-15" value="" style="endArrow=open;endFill=1;endSize=12;html=1;rounded=0;" parent="1" edge="1">
          <mxGeometry width="160" relative="1" as="geometry">
            <mxPoint x="-155" y="339.99999999999994" as="sourcePoint" />
            <mxPoint x="-125" y="339.99999999999994" as="targetPoint" />
          </mxGeometry>
        </mxCell>
        <mxCell id="Xl0pEHAAfheojtCyOTRl-16" value="&lt;span style=&quot;color: rgb(0, 0, 0); font-family: Helvetica; font-size: 11px; font-style: normal; font-variant-ligatures: normal; font-variant-caps: normal; font-weight: 400; letter-spacing: normal; orphans: 2; text-align: center; text-indent: 0px; text-transform: none; widows: 2; word-spacing: 0px; -webkit-text-stroke-width: 0px; white-space: nowrap; background-color: rgb(255, 255, 255); text-decoration-thickness: initial; text-decoration-style: initial; text-decoration-color: initial; display: inline !important; float: none;&quot;&gt;[inStock=true]&lt;/span&gt;&lt;div style=&quot;forced-color-adjust: none; color: rgb(0, 0, 0); font-family: Helvetica; font-size: 11px; font-style: normal; font-variant-ligatures: normal; font-variant-caps: normal; font-weight: 400; letter-spacing: normal; orphans: 2; text-align: center; text-indent: 0px; text-transform: none; widows: 2; word-spacing: 0px; -webkit-text-stroke-width: 0px; white-space: nowrap; text-decoration-thickness: initial; text-decoration-style: initial; text-decoration-color: initial;&quot;&gt;4: addToOrder(product)&amp;nbsp;&lt;/div&gt;" style="text;whiteSpace=wrap;html=1;" parent="1" vertex="1">
          <mxGeometry x="-120" y="450" width="120" height="50" as="geometry" />
        </mxCell>
        <mxCell id="Xl0pEHAAfheojtCyOTRl-17" value="" style="endArrow=none;html=1;rounded=0;entryX=0.5;entryY=1;entryDx=0;entryDy=0;exitX=0.5;exitY=0;exitDx=0;exitDy=0;" parent="1" source="Xl0pEHAAfheojtCyOTRl-3" target="Xl0pEHAAfheojtCyOTRl-5" edge="1">
          <mxGeometry width="50" height="50" relative="1" as="geometry">
            <mxPoint x="-315" y="620" as="sourcePoint" />
            <mxPoint x="-105" y="620" as="targetPoint" />
          </mxGeometry>
        </mxCell>
        <mxCell id="Xl0pEHAAfheojtCyOTRl-18" value="" style="endArrow=open;endFill=1;endSize=12;html=1;rounded=0;" parent="1" edge="1">
          <mxGeometry width="160" relative="1" as="geometry">
            <mxPoint x="-130" y="459.99999999999994" as="sourcePoint" />
            <mxPoint x="-130" y="490" as="targetPoint" />
          </mxGeometry>
        </mxCell>
        <mxCell id="Xl0pEHAAfheojtCyOTRl-19" value="&lt;span style=&quot;color: rgb(0, 0, 0); font-family: Helvetica; font-size: 11px; font-style: normal; font-variant-ligatures: normal; font-variant-caps: normal; font-weight: 400; letter-spacing: normal; orphans: 2; text-align: center; text-indent: 0px; text-transform: none; widows: 2; word-spacing: 0px; -webkit-text-stroke-width: 0px; white-space: nowrap; background-color: rgb(255, 255, 255); text-decoration-thickness: initial; text-decoration-style: initial; text-decoration-color: initial; display: inline !important; float: none;&quot;&gt;5: confirmOrder(order)&lt;/span&gt;" style="text;whiteSpace=wrap;html=1;" parent="1" vertex="1">
          <mxGeometry x="-315" y="520" width="120" height="25" as="geometry" />
        </mxCell>
        <mxCell id="Xl0pEHAAfheojtCyOTRl-20" value="" style="endArrow=none;html=1;rounded=0;entryX=0;entryY=0.5;entryDx=0;entryDy=0;exitX=1;exitY=0.5;exitDx=0;exitDy=0;" parent="1" source="Xl0pEHAAfheojtCyOTRl-2" target="Xl0pEHAAfheojtCyOTRl-3" edge="1">
          <mxGeometry width="50" height="50" relative="1" as="geometry">
            <mxPoint x="-480" y="622" as="sourcePoint" />
            <mxPoint x="-480" y="547" as="targetPoint" />
          </mxGeometry>
        </mxCell>
        <mxCell id="Xl0pEHAAfheojtCyOTRl-21" value="" style="endArrow=open;endFill=1;endSize=12;html=1;rounded=0;" parent="1" edge="1">
          <mxGeometry width="160" relative="1" as="geometry">
            <mxPoint x="-320" y="532.4599999999999" as="sourcePoint" />
            <mxPoint x="-350" y="532.16" as="targetPoint" />
          </mxGeometry>
        </mxCell>
        <mxCell id="Xl0pEHAAfheojtCyOTRl-22" value="&lt;span style=&quot;color: rgb(0, 0, 0); font-family: Helvetica; font-size: 11px; font-style: normal; font-variant-ligatures: normal; font-variant-caps: normal; font-weight: 400; letter-spacing: normal; orphans: 2; text-align: center; text-indent: 0px; text-transform: none; widows: 2; word-spacing: 0px; -webkit-text-stroke-width: 0px; white-space: nowrap; background-color: rgb(255, 255, 255); text-decoration-thickness: initial; text-decoration-style: initial; text-decoration-color: initial; display: inline !important; float: none;&quot;&gt;6: orderStatus=orderCheck(order, detailes)&lt;/span&gt;" style="text;whiteSpace=wrap;html=1;" parent="1" vertex="1">
          <mxGeometry x="-523" y="460" width="220" height="30" as="geometry" />
        </mxCell>
        <mxCell id="Xl0pEHAAfheojtCyOTRl-23" value="" style="endArrow=none;html=1;rounded=0;entryX=0.845;entryY=-0.003;entryDx=0;entryDy=0;entryPerimeter=0;exitX=0.151;exitY=0.006;exitDx=0;exitDy=0;exitPerimeter=0;" parent="1" source="Xl0pEHAAfheojtCyOTRl-2" target="Xl0pEHAAfheojtCyOTRl-2" edge="1">
          <mxGeometry width="50" height="50" relative="1" as="geometry">
            <mxPoint x="-467" y="515" as="sourcePoint" />
            <mxPoint x="-377" y="515" as="targetPoint" />
            <Array as="points">
              <mxPoint x="-452" y="500" />
              <mxPoint x="-374" y="500" />
            </Array>
          </mxGeometry>
        </mxCell>
        <mxCell id="Xl0pEHAAfheojtCyOTRl-24" value="" style="endArrow=open;endFill=1;endSize=12;html=1;rounded=0;" parent="1" edge="1">
          <mxGeometry width="160" relative="1" as="geometry">
            <mxPoint x="-399" y="490.2999999999999" as="sourcePoint" />
            <mxPoint x="-429" y="489.99999999999994" as="targetPoint" />
          </mxGeometry>
        </mxCell>
        <mxCell id="Xl0pEHAAfheojtCyOTRl-25" value="&lt;span style=&quot;color: rgb(0, 0, 0); font-family: Helvetica; font-size: 11px; font-style: normal; font-variant-ligatures: normal; font-variant-caps: normal; font-weight: 400; letter-spacing: normal; orphans: 2; text-align: center; text-indent: 0px; text-transform: none; widows: 2; word-spacing: 0px; -webkit-text-stroke-width: 0px; white-space: nowrap; background-color: rgb(255, 255, 255); text-decoration-thickness: initial; text-decoration-style: initial; text-decoration-color: initial; display: inline !important; float: none;&quot;&gt;[orderStatus=true] &lt;br&gt;7:&amp;nbsp;sendDeliveryList(deliveryList)&lt;/span&gt;" style="text;whiteSpace=wrap;html=1;" parent="1" vertex="1">
          <mxGeometry x="-640" y="510" width="160" height="30" as="geometry" />
        </mxCell>
        <mxCell id="Xl0pEHAAfheojtCyOTRl-26" value="&lt;span style=&quot;color: rgb(0, 0, 0); font-family: Helvetica; font-size: 11px; font-style: normal; font-variant-ligatures: normal; font-variant-caps: normal; font-weight: 400; letter-spacing: normal; orphans: 2; text-align: center; text-indent: 0px; text-transform: none; widows: 2; word-spacing: 0px; -webkit-text-stroke-width: 0px; white-space: nowrap; background-color: rgb(255, 255, 255); text-decoration-thickness: initial; text-decoration-style: initial; text-decoration-color: initial; display: inline !important; float: none;&quot;&gt;8: delivery(deliveryList)&lt;/span&gt;" style="text;whiteSpace=wrap;html=1;" parent="1" vertex="1">
          <mxGeometry x="-790" y="460" width="120" height="30" as="geometry" />
        </mxCell>
        <mxCell id="Xl0pEHAAfheojtCyOTRl-27" value="" style="endArrow=none;html=1;rounded=0;exitX=1;exitY=0.5;exitDx=0;exitDy=0;entryX=0;entryY=0.5;entryDx=0;entryDy=0;" parent="1" source="Xl0pEHAAfheojtCyOTRl-4" target="Xl0pEHAAfheojtCyOTRl-2" edge="1">
          <mxGeometry width="50" height="50" relative="1" as="geometry">
            <mxPoint x="-680" y="610" as="sourcePoint" />
            <mxPoint x="-400" y="670" as="targetPoint" />
          </mxGeometry>
        </mxCell>
        <mxCell id="Xl0pEHAAfheojtCyOTRl-33" value="" style="endArrow=open;endFill=1;endSize=12;html=1;rounded=0;" parent="1" edge="1">
          <mxGeometry width="160" relative="1" as="geometry">
            <mxPoint x="-640" y="532.5999999999999" as="sourcePoint" />
            <mxPoint x="-670" y="532.3" as="targetPoint" />
          </mxGeometry>
        </mxCell>
        <mxCell id="Xl0pEHAAfheojtCyOTRl-34" value="" style="endArrow=none;html=1;rounded=0;entryX=0.93;entryY=-0.005;entryDx=0;entryDy=0;entryPerimeter=0;exitX=0.105;exitY=-0.002;exitDx=0;exitDy=0;exitPerimeter=0;" parent="1" source="Xl0pEHAAfheojtCyOTRl-4" target="Xl0pEHAAfheojtCyOTRl-4" edge="1">
          <mxGeometry width="50" height="50" relative="1" as="geometry">
            <mxPoint x="-760" y="520" as="sourcePoint" />
            <mxPoint x="-700" y="510" as="targetPoint" />
            <Array as="points">
              <mxPoint x="-770" y="500" />
              <mxPoint x="-690" y="500" />
            </Array>
          </mxGeometry>
        </mxCell>
        <mxCell id="Xl0pEHAAfheojtCyOTRl-36" value="" style="endArrow=open;endFill=1;endSize=12;html=1;rounded=0;" parent="1" edge="1">
          <mxGeometry width="160" relative="1" as="geometry">
            <mxPoint x="-716.5" y="490.2999999999999" as="sourcePoint" />
            <mxPoint x="-746.5" y="489.99999999999994" as="targetPoint" />
          </mxGeometry>
        </mxCell>
      </root>
    </mxGraphModel>
  </diagram>
</mxfile>
